<svg xmlns="http://www.w3.org/2000/svg" xmlns:xlink="http://www.w3.org/1999/xlink" width="300" zoomAndPan="magnify" viewBox="0 0 224.87999 149.999998" height="200" preserveAspectRatio="xMidYMid meet" version="1.0"><defs><clipPath id="c621e915e2"><path d="M 0 0.0390625 L 224.761719 0.0390625 L 224.761719 149.960938 L 0 149.960938 Z M 0 0.0390625 " clip-rule="nonzero"/></clipPath><clipPath id="534c19f4cf"><path d="M 93 68 L 157.414062 68 L 157.414062 81 L 93 81 Z M 93 68 " clip-rule="nonzero"/></clipPath><clipPath id="ff8c48de07"><path d="M 67.464844 62.84375 L 91 62.84375 L 91 86.828125 L 67.464844 86.828125 Z M 67.464844 62.84375 " clip-rule="nonzero"/></clipPath><clipPath id="22f63eb328"><path d="M 78 62.84375 L 91 62.84375 L 91 86.828125 L 78 86.828125 Z M 78 62.84375 " clip-rule="nonzero"/></clipPath></defs><g clip-path="url(#c621e915e2)"><path fill="#ffffff" d="M 0 0.0390625 L 224.878906 0.0390625 L 224.878906 149.960938 L 0 149.960938 Z M 0 0.0390625 " fill-opacity="1" fill-rule="nonzero"/><path fill="#ffffff" d="M 0 0.0390625 L 224.878906 0.0390625 L 224.878906 149.960938 L 0 149.960938 Z M 0 0.0390625 " fill-opacity="1" fill-rule="nonzero"/></g><g clip-path="url(#534c19f4cf)"><path fill="#b52e31" d="M 93.949219 80.632812 L 93.949219 69.730469 L 95.371094 69.730469 L 102.125 78.503906 L 102.125 69.730469 L 103.476562 69.730469 L 103.476562 80.632812 L 102.054688 80.632812 L 95.300781 71.773438 L 95.300781 80.632812 Z M 114.476562 80.199219 C 113.582031 80.53125 112.617188 80.703125 111.597656 80.703125 C 107.597656 80.703125 105.597656 78.816406 105.597656 75.027344 C 105.597656 71.445312 107.527344 69.644531 111.386719 69.644531 C 112.492188 69.644531 113.527344 69.800781 114.476562 70.09375 L 114.476562 71.304688 C 113.527344 70.941406 112.546875 70.769531 111.546875 70.769531 C 108.527344 70.769531 107.019531 72.1875 107.019531 74.992188 C 107.019531 78.019531 108.511719 79.527344 111.476562 79.527344 C 111.949219 79.527344 112.476562 79.457031 113.054688 79.335938 L 113.054688 75.683594 L 114.476562 75.683594 Z M 116.753906 76.429688 L 116.753906 69.730469 L 118.175781 69.730469 L 118.175781 76.429688 C 118.175781 78.523438 119.230469 79.578125 121.351562 79.578125 C 123.457031 79.578125 124.527344 78.523438 124.527344 76.429688 L 124.527344 69.730469 L 125.949219 69.730469 L 125.949219 76.429688 C 125.949219 79.285156 124.421875 80.71875 121.351562 80.71875 C 118.28125 80.71875 116.753906 79.285156 116.753906 76.429688 Z M 129.914062 69.730469 L 129.914062 79.492188 L 135.703125 79.492188 L 135.703125 80.632812 L 128.492188 80.632812 L 128.492188 69.730469 Z M 137.753906 80.632812 L 136.265625 80.632812 L 141.753906 68.292969 L 147.246094 80.632812 L 145.667969 80.632812 L 144.246094 77.207031 L 140.597656 77.207031 L 140.984375 76.066406 L 143.773438 76.066406 L 141.703125 71.132812 Z M 148.773438 80.632812 L 148.773438 69.730469 L 153.492188 69.730469 C 155.597656 69.730469 156.648438 70.597656 156.648438 72.34375 C 156.648438 73.761719 155.613281 74.820312 153.5625 75.492188 L 157.351562 80.632812 L 155.472656 80.632812 L 151.964844 75.734375 L 151.964844 74.820312 C 154.070312 74.488281 155.140625 73.695312 155.140625 72.414062 C 155.140625 71.410156 154.5625 70.90625 153.386719 70.90625 L 150.226562 70.90625 L 150.226562 80.632812 Z M 148.773438 80.632812 " fill-opacity="1" fill-rule="evenodd"/></g><g clip-path="url(#ff8c48de07)"><path fill="#e23237" d="M 67.527344 66.824219 L 78.84375 62.84375 L 90.457031 66.753906 L 88.582031 81.515625 L 78.84375 86.828125 L 69.265625 81.585938 Z M 67.527344 66.824219 " fill-opacity="1" fill-rule="evenodd"/></g><g clip-path="url(#22f63eb328)"><path fill="#b52e31" d="M 90.457031 66.753906 L 78.84375 62.84375 L 78.84375 86.828125 L 88.582031 81.515625 Z M 90.457031 66.753906 " fill-opacity="1" fill-rule="evenodd"/></g><path fill="#ffffff" d="M 78.863281 65.644531 L 71.808594 81.117188 L 74.441406 81.066406 L 75.863281 77.570312 L 82.160156 77.570312 L 83.703125 81.101562 L 86.210938 81.152344 Z M 78.878906 70.613281 L 81.265625 75.527344 L 76.792969 75.527344 Z M 78.878906 70.613281 " fill-opacity="1" fill-rule="evenodd"/></svg>