<svg xmlns="http://www.w3.org/2000/svg" xmlns:xlink="http://www.w3.org/1999/xlink" width="300" zoomAndPan="magnify" viewBox="0 0 224.87999 149.999998" height="200" preserveAspectRatio="xMidYMid meet" version="1.0"><defs><clipPath id="dfd1f4bbdd"><path d="M 0 0.0390625 L 224.761719 0.0390625 L 224.761719 149.960938 L 0 149.960938 Z M 0 0.0390625 " clip-rule="nonzero"/></clipPath><clipPath id="5d80626e44"><path d="M 88.890625 45.015625 L 120 45.015625 L 120 92 L 88.890625 92 Z M 88.890625 45.015625 " clip-rule="nonzero"/></clipPath><clipPath id="be0a699b3c"><path d="M 116 60 L 136.113281 60 L 136.113281 104.984375 L 116 104.984375 Z M 116 60 " clip-rule="nonzero"/></clipPath><clipPath id="16614087ed"><path d="M 125 45.015625 L 136 45.015625 L 136 55 L 125 55 Z M 125 45.015625 " clip-rule="nonzero"/></clipPath></defs><g clip-path="url(#dfd1f4bbdd)"><path fill="#ffffff" d="M 0 0.0390625 L 224.878906 0.0390625 L 224.878906 149.960938 L 0 149.960938 Z M 0 0.0390625 " fill-opacity="1" fill-rule="nonzero"/><path fill="#ffffff" d="M 0 0.0390625 L 224.878906 0.0390625 L 224.878906 149.960938 L 0 149.960938 Z M 0 0.0390625 " fill-opacity="1" fill-rule="nonzero"/></g><g clip-path="url(#5d80626e44)"><path fill="#2ba977" d="M 110.132812 45.015625 L 119.976562 45.015625 L 119.976562 90.019531 C 114.933594 90.96875 111.222656 91.34375 107.207031 91.34375 C 95.179688 91.332031 88.921875 85.972656 88.921875 75.683594 C 88.921875 65.769531 95.5625 59.335938 105.851562 59.335938 C 107.445312 59.335938 108.664062 59.460938 110.132812 59.835938 Z M 110.476562 67.945312 C 109.324219 67.570312 108.375 67.445312 107.15625 67.445312 C 102.179688 67.445312 99.300781 70.476562 99.300781 75.785156 C 99.300781 80.953125 102.050781 83.808594 107.09375 83.808594 C 108.183594 83.808594 109.070312 83.746094 110.476562 83.554688 Z M 110.476562 67.945312 " fill-opacity="1" fill-rule="nonzero"/></g><g clip-path="url(#be0a699b3c)"><path fill="#2ba977" d="M 136.078125 60.542969 L 136.078125 83.074219 C 136.078125 90.835938 135.496094 94.566406 133.785156 97.785156 C 132.1875 100.878906 130.085938 102.828125 125.738281 104.980469 L 116.605469 100.6875 C 120.949219 98.675781 123.054688 96.894531 124.398438 94.175781 C 125.804688 91.398438 126.246094 88.183594 126.246094 79.722656 L 126.246094 60.542969 Z M 136.078125 60.542969 " fill-opacity="1" fill-rule="nonzero"/></g><g clip-path="url(#16614087ed)"><path fill="#2ba977" d="M 125.253906 45.015625 L 135.101562 45.015625 L 135.101562 54.992188 L 125.253906 54.992188 Z M 125.253906 45.015625 " fill-opacity="1" fill-rule="nonzero"/></g></svg>