<svg xmlns="http://www.w3.org/2000/svg" xmlns:xlink="http://www.w3.org/1999/xlink" width="300" zoomAndPan="magnify" viewBox="0 0 224.87999 149.999998" height="200" preserveAspectRatio="xMidYMid meet" version="1.0"><defs><clipPath id="509adf2d05"><path d="M 0 0.0390625 L 224.761719 0.0390625 L 224.761719 149.960938 L 0 149.960938 Z M 0 0.0390625 " clip-rule="nonzero"/></clipPath><clipPath id="03428c7989"><path d="M 112 45.015625 L 126.859375 45.015625 L 126.859375 98 L 112 98 Z M 112 45.015625 " clip-rule="nonzero"/></clipPath><clipPath id="769dbfde2c"><path d="M 99 45.015625 L 113 45.015625 L 113 98 L 99 98 Z M 99 45.015625 " clip-rule="nonzero"/></clipPath><clipPath id="fab30d7e7d"><path d="M 111 90 L 115 90 L 115 104.984375 L 111 104.984375 Z M 111 90 " clip-rule="nonzero"/></clipPath></defs><g clip-path="url(#509adf2d05)"><path fill="#ffffff" d="M 0 0.0390625 L 224.878906 0.0390625 L 224.878906 149.960938 L 0 149.960938 Z M 0 0.0390625 " fill-opacity="1" fill-rule="nonzero"/><path fill="#ffffff" d="M 0 0.0390625 L 224.878906 0.0390625 L 224.878906 149.960938 L 0 149.960938 Z M 0 0.0390625 " fill-opacity="1" fill-rule="nonzero"/></g><g clip-path="url(#03428c7989)"><path fill="#599636" d="M 112.523438 45.179688 L 114.144531 48.183594 C 114.507812 48.738281 114.902344 49.230469 115.367188 49.6875 C 116.726562 51.027344 118.015625 52.429688 119.171875 53.933594 C 121.917969 57.496094 123.769531 61.449219 125.09375 65.726562 C 125.886719 68.339844 126.316406 71.019531 126.351562 73.726562 C 126.484375 81.828125 123.671875 88.785156 118 94.566406 C 117.070312 95.480469 116.082031 96.328125 115.019531 97.082031 C 114.457031 97.082031 114.191406 96.65625 113.960938 96.265625 C 113.527344 95.546875 113.265625 94.726562 113.132812 93.914062 C 112.933594 92.933594 112.800781 91.953125 112.867188 90.941406 L 112.867188 90.484375 C 112.820312 90.386719 112.324219 45.410156 112.523438 45.179688 Z M 112.523438 45.179688 " fill-opacity="1" fill-rule="nonzero"/></g><g clip-path="url(#769dbfde2c)"><path fill="#6cac48" d="M 112.523438 45.078125 C 112.457031 44.949219 112.390625 45.046875 112.324219 45.113281 C 112.355469 45.765625 112.125 46.351562 111.761719 46.910156 C 111.363281 47.464844 110.835938 47.890625 110.304688 48.347656 C 107.363281 50.863281 105.046875 53.902344 103.191406 57.296875 C 100.726562 61.871094 99.453125 66.769531 99.09375 71.929688 C 98.925781 73.792969 99.6875 80.359375 100.28125 82.253906 C 101.902344 87.28125 104.816406 91.496094 108.585938 95.15625 C 109.511719 96.035156 110.503906 96.851562 111.53125 97.636719 C 111.828125 97.636719 111.859375 97.375 111.929688 97.179688 C 112.058594 96.761719 112.160156 96.339844 112.226562 95.90625 L 112.890625 91.007812 Z M 112.523438 45.078125 " fill-opacity="1" fill-rule="nonzero"/></g><g clip-path="url(#fab30d7e7d)"><path fill="#c2bfbf" d="M 114.144531 99.070312 C 114.210938 98.320312 114.574219 97.699219 114.972656 97.078125 C 114.574219 96.917969 114.277344 96.59375 114.042969 96.230469 C 113.84375 95.90625 113.679688 95.511719 113.550781 95.152344 C 113.089844 93.78125 112.988281 92.34375 112.855469 90.941406 L 112.855469 90.089844 C 112.691406 90.222656 112.65625 91.332031 112.65625 91.496094 C 112.558594 92.980469 112.363281 94.449219 112.0625 95.90625 C 111.960938 96.496094 111.894531 97.082031 111.53125 97.605469 C 111.53125 97.667969 111.53125 97.734375 111.5625 97.832031 C 112.15625 99.5625 112.320312 101.328125 112.421875 103.125 L 112.421875 103.78125 C 112.421875 104.5625 112.390625 104.398438 113.046875 104.660156 C 113.3125 104.757812 113.609375 104.792969 113.875 104.988281 C 114.074219 104.988281 114.105469 104.824219 114.105469 104.695312 L 114.007812 103.617188 L 114.007812 100.609375 C 113.976562 100.085938 114.074219 99.5625 114.140625 99.074219 Z M 114.144531 99.070312 " fill-opacity="1" fill-rule="nonzero"/></g></svg>