<svg xmlns="http://www.w3.org/2000/svg" xmlns:xlink="http://www.w3.org/1999/xlink" width="300" zoomAndPan="magnify" viewBox="0 0 224.87999 149.999998" height="200" preserveAspectRatio="xMidYMid meet" version="1.0"><defs><clipPath id="6a1ad2e1a4"><path d="M 0 0.0390625 L 224.761719 0.0390625 L 224.761719 149.960938 L 0 149.960938 Z M 0 0.0390625 " clip-rule="nonzero"/></clipPath><clipPath id="54355f2a9f"><path d="M 67.464844 52 L 157 52 L 157 99 L 67.464844 99 Z M 67.464844 52 " clip-rule="nonzero"/></clipPath></defs><g clip-path="url(#6a1ad2e1a4)"><path fill="#ffffff" d="M 0 0.0390625 L 224.878906 0.0390625 L 224.878906 149.960938 L 0 149.960938 Z M 0 0.0390625 " fill-opacity="1" fill-rule="nonzero"/><path fill="#ffffff" d="M 0 0.0390625 L 224.878906 0.0390625 L 224.878906 149.960938 L 0 149.960938 Z M 0 0.0390625 " fill-opacity="1" fill-rule="nonzero"/></g><g clip-path="url(#54355f2a9f)"><path fill="#00678c" d="M 67.296875 94.71875 L 70.253906 94.71875 L 70.253906 82.929688 L 74.867188 93.210938 C 75.390625 94.445312 76.140625 94.902344 77.59375 94.902344 C 79.046875 94.902344 79.753906 94.445312 80.292969 93.210938 L 84.886719 82.929688 L 84.886719 94.71875 L 87.863281 94.71875 L 87.863281 82.929688 C 87.863281 81.785156 87.40625 81.234375 86.453125 80.9375 C 84.203125 80.25 82.703125 80.847656 82.023438 82.378906 L 77.5 92.542969 L 73.136719 82.378906 C 72.476562 80.847656 70.953125 80.25 68.679688 80.9375 C 67.75 81.234375 67.292969 81.785156 67.292969 82.929688 L 67.292969 94.71875 Z M 90.320312 85.128906 L 93.300781 85.128906 L 93.300781 91.605469 C 93.277344 91.972656 93.414062 92.796875 95.03125 92.820312 C 95.871094 92.84375 101.441406 92.820312 101.484375 92.820312 L 101.484375 85.082031 L 104.464844 85.082031 L 104.464844 95.683594 C 104.464844 98.292969 101.253906 98.863281 99.757812 98.886719 L 90.394531 98.886719 L 90.394531 96.894531 L 99.78125 96.894531 C 101.691406 96.691406 101.464844 95.730469 101.464844 95.40625 L 101.464844 94.628906 L 95.167969 94.628906 C 92.234375 94.605469 90.347656 93.300781 90.328125 91.8125 L 90.328125 85.128906 Z M 154.1875 77.617188 C 152.367188 77.574219 150.957031 77.757812 149.777344 78.261719 C 149.4375 78.398438 148.890625 78.398438 148.84375 78.832031 C 149.027344 79.015625 149.050781 79.3125 149.207031 79.566406 C 149.480469 80.023438 149.957031 80.640625 150.390625 80.960938 C 150.867188 81.328125 151.34375 81.695312 151.84375 82.015625 C 152.730469 82.5625 153.730469 82.882812 154.59375 83.433594 C 155.09375 83.753906 155.59375 84.167969 156.09375 84.511719 C 156.347656 84.695312 156.503906 84.992188 156.820312 85.105469 L 156.820312 85.035156 C 156.664062 84.832031 156.617188 84.535156 156.457031 84.304688 C 156.230469 84.074219 156.003906 83.867188 155.777344 83.640625 C 155.117188 82.746094 154.300781 81.96875 153.414062 81.328125 C 152.683594 80.824219 151.09375 80.136719 150.800781 79.289062 L 150.753906 79.246094 C 151.253906 79.199219 151.84375 79.015625 152.324219 78.878906 C 153.097656 78.671875 153.800781 78.71875 154.59375 78.511719 C 154.957031 78.417969 155.320312 78.304688 155.6875 78.191406 L 155.6875 77.984375 C 155.277344 77.574219 154.980469 77.023438 154.550781 76.636719 C 153.390625 75.628906 152.117188 74.644531 150.800781 73.820312 C 150.09375 73.363281 149.1875 73.0625 148.4375 72.675781 C 148.164062 72.539062 147.707031 72.46875 147.550781 72.238281 C 147.140625 71.738281 146.914062 71.074219 146.617188 70.476562 C 145.957031 69.21875 145.320312 67.820312 144.753906 66.492188 C 144.34375 65.601562 144.09375 64.707031 143.59375 63.882812 C 141.253906 59.992188 138.707031 57.632812 134.796875 55.320312 C 133.957031 54.839844 132.957031 54.632812 131.894531 54.382812 L 130.191406 54.289062 C 129.828125 54.128906 129.464844 53.695312 129.144531 53.488281 C 127.847656 52.664062 124.507812 50.878906 123.554688 53.238281 C 122.9375 54.726562 124.460938 56.191406 124.980469 56.945312 C 125.367188 57.472656 125.867188 58.066406 126.140625 58.664062 C 126.292969 59.050781 126.34375 59.464844 126.503906 59.875 C 126.867188 60.882812 127.207031 62.007812 127.683594 62.945312 C 127.9375 63.425781 128.207031 63.929688 128.523438 64.363281 C 128.707031 64.617188 129.023438 64.730469 129.09375 65.144531 C 128.773438 65.601562 128.753906 66.289062 128.570312 66.859375 C 127.753906 69.449219 128.070312 72.652344 129.230469 74.550781 C 129.59375 75.125 130.453125 76.382812 131.617188 75.902344 C 132.640625 75.492188 132.410156 74.1875 132.707031 73.042969 C 132.773438 72.765625 132.730469 72.582031 132.867188 72.398438 L 132.867188 72.445312 L 133.796875 74.347656 C 134.503906 75.46875 135.730469 76.636719 136.753906 77.414062 C 137.296875 77.828125 137.730469 78.535156 138.410156 78.789062 L 138.410156 78.71875 L 138.367188 78.71875 C 138.230469 78.511719 138.023438 78.421875 137.84375 78.261719 C 137.433594 77.847656 136.980469 77.34375 136.660156 76.886719 C 135.707031 75.605469 134.867188 74.1875 134.117188 72.722656 C 133.75 72.011719 133.433594 71.234375 133.140625 70.523438 C 133 70.25 133 69.835938 132.773438 69.699219 C 132.433594 70.203125 131.933594 70.636719 131.683594 71.257812 C 131.25 72.238281 131.207031 73.453125 131.046875 74.714844 C 130.957031 74.734375 130.996094 74.714844 130.957031 74.757812 C 130.230469 74.578125 129.980469 73.820312 129.707031 73.179688 C 129.023438 71.554688 128.910156 68.945312 129.5 67.066406 C 129.660156 66.585938 130.34375 65.074219 130.070312 64.617188 C 129.933594 64.183594 129.480469 63.929688 129.230469 63.585938 C 128.933594 63.152344 128.617188 62.601562 128.410156 62.121094 C 127.867188 60.839844 127.59375 59.421875 127.003906 58.136719 C 126.730469 57.542969 126.25 56.925781 125.863281 56.375 C 125.433594 55.757812 124.957031 55.320312 124.617188 54.589844 C 124.503906 54.339844 124.34375 53.925781 124.523438 53.652344 C 124.570312 53.46875 124.660156 53.398438 124.84375 53.351562 C 125.136719 53.101562 125.980469 53.421875 126.273438 53.558594 C 127.117188 53.902344 127.820312 54.222656 128.523438 54.703125 C 128.84375 54.933594 129.183594 55.367188 129.59375 55.480469 L 130.070312 55.480469 C 130.796875 55.640625 131.617188 55.527344 132.296875 55.734375 C 133.5 56.125 134.59375 56.695312 135.570312 57.3125 C 138.546875 59.214844 141.003906 61.914062 142.660156 65.144531 C 142.933594 65.671875 143.046875 66.152344 143.296875 66.699219 C 143.777344 67.824219 144.367188 68.96875 144.84375 70.066406 C 145.320312 71.144531 145.773438 72.242188 146.457031 73.136719 C 146.796875 73.617188 148.160156 73.867188 148.773438 74.121094 C 149.230469 74.324219 149.933594 74.507812 150.34375 74.761719 C 151.117188 75.242188 151.886719 75.789062 152.617188 76.316406 C 152.980469 76.589844 154.117188 77.164062 154.183594 77.621094 Z M 131.007812 57.722656 C 130.691406 57.722656 130.382812 57.757812 130.078125 57.839844 L 130.078125 57.882812 L 130.121094 57.882812 C 130.304688 58.25 130.621094 58.503906 130.847656 58.824219 L 131.371094 59.921875 L 131.417969 59.875 C 131.734375 59.648438 131.894531 59.28125 131.894531 58.730469 C 131.757812 58.570312 131.734375 58.410156 131.621094 58.25 C 131.484375 58.023438 131.191406 57.90625 131.007812 57.726562 Z M 131.007812 57.722656 " fill-opacity="1" fill-rule="evenodd"/></g><path fill="#ce8b2c" d="M 106.730469 94.71875 L 115.277344 94.71875 C 116.277344 94.71875 117.234375 94.515625 118.003906 94.148438 C 119.300781 93.554688 119.914062 92.753906 119.914062 91.699219 L 119.914062 89.5 C 119.914062 88.65625 119.210938 87.851562 117.800781 87.304688 C 117.074219 87.03125 116.164062 86.867188 115.277344 86.867188 L 111.6875 86.867188 C 110.480469 86.867188 109.914062 86.5 109.753906 85.703125 C 109.734375 85.609375 109.734375 85.519531 109.734375 85.425781 L 109.734375 84.074219 C 109.734375 84.007812 109.734375 83.914062 109.753906 83.824219 C 109.914062 83.207031 110.230469 83.046875 111.28125 82.929688 L 120.03125 82.929688 L 120.03125 80.9375 L 111.714844 80.9375 C 110.511719 80.9375 109.875 81.007812 109.304688 81.191406 C 107.554688 81.742188 106.78125 82.609375 106.78125 84.144531 L 106.78125 85.886719 C 106.78125 87.234375 108.28125 88.378906 110.828125 88.65625 C 111.101562 88.679688 111.394531 88.679688 111.691406 88.679688 L 114.757812 88.679688 C 114.875 88.679688 114.988281 88.679688 115.078125 88.699219 C 116.007812 88.792969 116.417969 88.953125 116.691406 89.296875 C 116.871094 89.476562 116.917969 89.640625 116.917969 89.84375 L 116.917969 91.585938 C 116.917969 91.789062 116.78125 92.066406 116.507812 92.292969 C 116.238281 92.523438 115.804688 92.683594 115.234375 92.707031 C 115.121094 92.707031 115.054688 92.730469 114.941406 92.730469 L 106.730469 92.730469 Z M 138.414062 91.265625 C 138.414062 93.300781 139.941406 94.445312 142.984375 94.675781 C 143.277344 94.699219 143.550781 94.71875 143.847656 94.71875 L 151.574219 94.71875 L 151.574219 92.730469 L 143.777344 92.730469 C 142.050781 92.730469 141.390625 92.292969 141.390625 91.242188 L 141.390625 80.9375 L 138.40625 80.9375 L 138.40625 91.265625 Z M 121.800781 91.355469 L 121.800781 84.257812 C 121.800781 82.449219 123.074219 81.351562 125.550781 81.007812 C 125.824219 80.984375 126.097656 80.960938 126.34375 80.960938 L 131.980469 80.960938 C 132.277344 80.960938 132.527344 80.984375 132.824219 81.007812 C 135.300781 81.351562 136.550781 82.449219 136.550781 84.257812 L 136.550781 91.355469 C 136.550781 92.820312 136.027344 93.597656 134.800781 94.125 L 137.707031 96.78125 L 134.277344 96.78125 L 131.914062 94.628906 L 129.527344 94.765625 L 126.34375 94.765625 C 125.757812 94.765625 125.183594 94.6875 124.617188 94.539062 C 122.730469 94.011719 121.800781 93.003906 121.800781 91.355469 Z M 125.003906 91.195312 C 125.003906 91.289062 125.054688 91.378906 125.074219 91.492188 C 125.230469 92.316406 126.003906 92.773438 127.1875 92.773438 L 129.867188 92.773438 L 127.414062 90.53125 L 130.84375 90.53125 L 133.003906 92.5 C 133.414062 92.269531 133.664062 91.949219 133.753906 91.539062 C 133.777344 91.449219 133.777344 91.332031 133.777344 91.242188 L 133.777344 84.441406 C 133.777344 84.351562 133.777344 84.257812 133.753906 84.167969 C 133.597656 83.390625 132.824219 82.953125 131.664062 82.953125 L 127.1875 82.953125 C 125.867188 82.953125 125.003906 83.527344 125.003906 84.441406 Z M 125.003906 91.195312 " fill-opacity="1" fill-rule="evenodd"/></svg>