<svg xmlns="http://www.w3.org/2000/svg" xmlns:xlink="http://www.w3.org/1999/xlink" width="300" zoomAndPan="magnify" viewBox="0 0 224.87999 149.999998" height="200" preserveAspectRatio="xMidYMid meet" version="1.0"><defs><clipPath id="a4ad1242b7"><path d="M 0 0.0390625 L 224.761719 0.0390625 L 224.761719 149.960938 L 0 149.960938 Z M 0 0.0390625 " clip-rule="nonzero"/></clipPath><clipPath id="ff80277ef0"><path d="M 67.464844 47.875 L 157.414062 47.875 L 157.414062 101.84375 L 67.464844 101.84375 Z M 67.464844 47.875 " clip-rule="nonzero"/></clipPath></defs><g clip-path="url(#a4ad1242b7)"><path fill="#ffffff" d="M 0 0.0390625 L 224.878906 0.0390625 L 224.878906 149.960938 L 0 149.960938 Z M 0 0.0390625 " fill-opacity="1" fill-rule="nonzero"/><path fill="#ffffff" d="M 0 0.0390625 L 224.878906 0.0390625 L 224.878906 149.960938 L 0 149.960938 Z M 0 0.0390625 " fill-opacity="1" fill-rule="nonzero"/></g><g clip-path="url(#ff80277ef0)"><path fill="#000000" d="M 88.695312 61.949219 L 105.65625 61.949219 L 105.65625 63.289062 L 90.25 63.289062 L 90.25 73.382812 L 104.738281 73.382812 L 104.738281 74.726562 L 90.25 74.726562 L 90.25 85.804688 L 105.832031 85.804688 L 105.832031 87.148438 L 88.695312 87.148438 Z M 107.175781 61.949219 L 108.976562 61.949219 L 116.964844 73.03125 L 125.125 61.949219 L 136.226562 47.875 L 117.988281 74.195312 L 127.386719 87.148438 L 125.515625 87.148438 L 116.964844 75.359375 L 108.378906 87.148438 L 106.539062 87.148438 L 116.007812 74.195312 Z M 128.058594 63.289062 L 128.058594 61.949219 L 147.386719 61.949219 L 147.386719 63.289062 L 138.484375 63.289062 L 138.484375 87.148438 L 136.929688 87.148438 L 136.929688 63.289062 Z M 67.480469 61.949219 L 69.421875 61.949219 L 96.21875 101.839844 L 85.144531 87.148438 L 69.105469 63.855469 L 69.035156 87.148438 L 67.480469 87.148438 Z M 147.230469 85.402344 C 146.914062 85.402344 146.675781 85.15625 146.675781 84.839844 C 146.675781 84.523438 146.914062 84.277344 147.230469 84.277344 C 147.550781 84.277344 147.785156 84.523438 147.785156 84.839844 C 147.785156 85.15625 147.550781 85.402344 147.230469 85.402344 Z M 148.757812 83.925781 L 149.589844 83.925781 C 149.601562 84.375 149.929688 84.671875 150.414062 84.671875 C 150.953125 84.671875 151.257812 84.351562 151.257812 83.746094 L 151.257812 79.902344 L 152.109375 79.902344 L 152.109375 83.746094 C 152.109375 84.839844 151.472656 85.46875 150.421875 85.46875 C 149.433594 85.46875 148.757812 84.859375 148.757812 83.925781 Z M 153.214844 83.875 L 154.054688 83.875 C 154.125 84.390625 154.632812 84.71875 155.363281 84.71875 C 156.042969 84.71875 156.542969 84.371094 156.542969 83.886719 C 156.542969 83.472656 156.226562 83.222656 155.503906 83.054688 L 154.800781 82.882812 C 153.8125 82.65625 153.363281 82.179688 153.363281 81.382812 C 153.363281 80.414062 154.15625 79.769531 155.347656 79.769531 C 156.457031 79.769531 157.265625 80.414062 157.3125 81.328125 L 156.488281 81.328125 C 156.410156 80.828125 155.972656 80.515625 155.335938 80.515625 C 154.667969 80.515625 154.222656 80.835938 154.222656 81.324219 C 154.222656 81.714844 154.507812 81.9375 155.21875 82.101562 L 155.820312 82.25 C 156.941406 82.507812 157.402344 82.960938 157.402344 83.777344 C 157.402344 84.816406 156.589844 85.46875 155.300781 85.46875 C 154.089844 85.46875 153.277344 84.847656 153.214844 83.875 Z M 153.214844 83.875 " fill-opacity="1" fill-rule="nonzero"/></g></svg>