<svg xmlns="http://www.w3.org/2000/svg" xmlns:xlink="http://www.w3.org/1999/xlink" width="300" zoomAndPan="magnify" viewBox="0 0 224.87999 149.999998" height="200" preserveAspectRatio="xMidYMid meet" version="1.0"><defs><clipPath id="721bba198b"><path d="M 0 0.0390625 L 224.761719 0.0390625 L 224.761719 149.960938 L 0 149.960938 Z M 0 0.0390625 " clip-rule="nonzero"/></clipPath><clipPath id="487463b84a"><path d="M 142 71 L 157 71 L 157 87.894531 L 142 87.894531 Z M 142 71 " clip-rule="nonzero"/></clipPath><clipPath id="9fa14e283d"><path d="M 67.464844 62.40625 L 139 62.40625 L 139 87.894531 L 67.464844 87.894531 Z M 67.464844 62.40625 " clip-rule="nonzero"/></clipPath><clipPath id="5bd088ba11"><path d="M 86 71 L 133 71 L 133 87.894531 L 86 87.894531 Z M 86 71 " clip-rule="nonzero"/></clipPath></defs><g clip-path="url(#721bba198b)"><path fill="#ffffff" d="M 0 0.0390625 L 224.878906 0.0390625 L 224.878906 149.960938 L 0 149.960938 Z M 0 0.0390625 " fill-opacity="1" fill-rule="nonzero"/><path fill="#ffffff" d="M 0 0.0390625 L 224.878906 0.0390625 L 224.878906 149.960938 L 0 149.960938 Z M 0 0.0390625 " fill-opacity="1" fill-rule="nonzero"/></g><g clip-path="url(#487463b84a)"><path fill="#83cd29" d="M 149.777344 71.429688 C 149.558594 71.429688 149.347656 71.472656 149.164062 71.578125 L 143.265625 75.027344 C 142.882812 75.25 142.652344 75.667969 142.652344 76.117188 L 142.652344 83 C 142.652344 83.445312 142.882812 83.863281 143.265625 84.089844 L 144.804688 84.988281 C 145.554688 85.359375 145.828125 85.355469 146.171875 85.355469 C 147.277344 85.355469 147.910156 84.671875 147.910156 83.492188 L 147.910156 76.703125 C 147.910156 76.605469 147.828125 76.535156 147.734375 76.535156 L 146.996094 76.535156 C 146.902344 76.535156 146.820312 76.605469 146.820312 76.703125 L 146.820312 83.492188 C 146.820312 84.019531 146.28125 84.546875 145.40625 84.101562 L 143.804688 83.152344 C 143.75 83.121094 143.703125 83.0625 143.703125 83 L 143.703125 76.117188 C 143.703125 76.054688 143.746094 75.988281 143.804688 75.953125 L 149.691406 72.519531 C 149.746094 72.488281 149.8125 72.488281 149.867188 72.519531 L 155.75 75.953125 C 155.808594 75.988281 155.851562 76.050781 155.851562 76.117188 L 155.851562 83 C 155.851562 83.066406 155.820312 83.132812 155.761719 83.164062 L 149.867188 86.597656 C 149.8125 86.628906 149.742188 86.628906 149.691406 86.597656 L 148.175781 85.6875 C 148.128906 85.660156 148.070312 85.664062 148.023438 85.6875 C 147.605469 85.925781 147.527344 85.953125 147.136719 86.09375 C 147.039062 86.125 146.894531 86.179688 147.1875 86.347656 L 149.164062 87.527344 C 149.351562 87.636719 149.5625 87.691406 149.777344 87.691406 C 149.996094 87.691406 150.203125 87.636719 150.390625 87.527344 L 156.289062 84.089844 C 156.671875 83.867188 156.902344 83.449219 156.902344 83 L 156.902344 76.121094 C 156.902344 75.671875 156.671875 75.253906 156.289062 75.03125 L 150.390625 71.582031 C 150.207031 71.476562 149.996094 71.429688 149.777344 71.429688 Z M 151.355469 76.34375 C 149.675781 76.34375 148.675781 77.070312 148.675781 78.273438 C 148.675781 79.574219 149.667969 79.933594 151.277344 80.097656 C 153.207031 80.289062 153.359375 80.574219 153.359375 80.957031 C 153.359375 81.625 152.832031 81.910156 151.59375 81.910156 C 150.035156 81.910156 149.691406 81.515625 149.574219 80.726562 C 149.5625 80.644531 149.5 80.578125 149.414062 80.578125 L 148.648438 80.578125 C 148.535156 80.578125 148.476562 80.636719 148.472656 80.753906 C 148.472656 81.757812 149.011719 82.945312 151.589844 82.945312 C 153.457031 82.945312 154.53125 82.207031 154.53125 80.90625 C 154.53125 79.621094 153.664062 79.273438 151.851562 79.03125 C 150.027344 78.785156 149.851562 78.664062 149.851562 78.230469 C 149.851562 77.875 149.996094 77.394531 151.351562 77.394531 C 152.5625 77.394531 153.007812 77.660156 153.191406 78.484375 C 153.210938 78.5625 153.277344 78.625 153.355469 78.625 L 154.121094 78.625 C 154.167969 78.625 154.214844 78.597656 154.246094 78.5625 C 154.277344 78.527344 154.300781 78.484375 154.296875 78.433594 C 154.179688 77.011719 153.242188 76.34375 151.355469 76.34375 Z M 151.355469 76.34375 " fill-opacity="1" fill-rule="nonzero"/></g><g clip-path="url(#9fa14e283d)"><path fill="#404137" d="M 115.105469 62.40625 C 115.035156 62.40625 114.972656 62.425781 114.917969 62.457031 C 114.792969 62.53125 114.730469 62.640625 114.726562 62.785156 L 114.726562 72.480469 C 114.726562 72.578125 114.683594 72.664062 114.601562 72.710938 C 114.515625 72.761719 114.425781 72.761719 114.339844 72.710938 L 112.773438 71.796875 C 112.523438 71.652344 112.273438 71.652344 112.023438 71.796875 L 105.777344 75.449219 C 105.542969 75.582031 105.398438 75.847656 105.398438 76.117188 L 105.398438 83.417969 C 105.398438 83.710938 105.523438 83.929688 105.777344 84.078125 L 112.023438 87.726562 C 112.273438 87.875 112.523438 87.875 112.773438 87.726562 L 119.023438 84.078125 C 119.273438 83.929688 119.398438 83.710938 119.398438 83.417969 L 119.398438 65.21875 C 119.398438 64.941406 119.25 64.683594 119.011719 64.546875 L 115.292969 62.445312 C 115.234375 62.410156 115.167969 62.40625 115.105469 62.40625 Z M 74.910156 71.519531 C 74.789062 71.523438 74.679688 71.542969 74.570312 71.609375 L 68.324219 75.257812 C 68.070312 75.402344 67.945312 75.621094 67.949219 75.917969 L 67.960938 85.710938 C 67.960938 85.847656 68.03125 85.976562 68.148438 86.042969 C 68.265625 86.113281 68.410156 86.113281 68.523438 86.042969 L 72.230469 83.886719 C 72.464844 83.746094 72.617188 83.5 72.617188 83.230469 L 72.617188 78.652344 C 72.617188 78.378906 72.761719 78.128906 72.996094 77.996094 L 74.570312 77.070312 C 74.6875 77 74.8125 76.96875 74.949219 76.96875 C 75.082031 76.96875 75.207031 77 75.324219 77.070312 L 76.902344 77.992188 C 77.132812 78.128906 77.277344 78.378906 77.277344 78.652344 L 77.277344 83.226562 C 77.277344 83.5 77.433594 83.746094 77.664062 83.886719 L 81.371094 86.039062 C 81.488281 86.113281 81.628906 86.113281 81.746094 86.039062 C 81.859375 85.972656 81.933594 85.847656 81.933594 85.710938 L 81.945312 75.914062 C 81.949219 75.621094 81.824219 75.402344 81.570312 75.257812 L 75.324219 71.609375 C 75.21875 71.546875 75.105469 71.523438 74.984375 71.519531 Z M 131.054688 71.609375 C 130.921875 71.605469 130.796875 71.640625 130.679688 71.707031 L 124.429688 75.359375 C 124.199219 75.496094 124.054688 75.746094 124.054688 76.015625 L 124.054688 83.316406 C 124.054688 83.589844 124.207031 83.839844 124.445312 83.976562 L 130.640625 87.550781 C 130.871094 87.683594 131.148438 87.695312 131.378906 87.5625 L 135.136719 85.449219 C 135.257812 85.378906 135.335938 85.253906 135.335938 85.117188 C 135.335938 84.980469 135.265625 84.855469 135.148438 84.789062 L 128.863281 81.140625 C 128.746094 81.070312 128.664062 80.933594 128.664062 80.796875 L 128.664062 78.515625 C 128.664062 78.378906 128.746094 78.253906 128.863281 78.183594 L 130.816406 77.042969 C 130.933594 76.976562 131.074219 76.976562 131.191406 77.042969 L 133.148438 78.183594 C 133.277344 78.257812 133.339844 78.367188 133.339844 78.515625 L 133.339844 80.3125 C 133.335938 80.460938 133.398438 80.570312 133.527344 80.644531 C 133.644531 80.710938 133.785156 80.710938 133.902344 80.644531 L 137.644531 78.4375 C 137.878906 78.300781 138.019531 78.050781 138.019531 77.777344 L 138.019531 76.015625 C 138.019531 75.722656 137.894531 75.503906 137.644531 75.359375 L 131.433594 71.707031 C 131.320312 71.640625 131.191406 71.605469 131.058594 71.605469 Z M 112.375 77.058594 C 112.410156 77.058594 112.441406 77.066406 112.472656 77.082031 L 114.613281 78.335938 C 114.671875 78.371094 114.714844 78.433594 114.714844 78.5 L 114.714844 81.011719 C 114.714844 81.078125 114.671875 81.140625 114.613281 81.175781 L 112.472656 82.429688 C 112.414062 82.464844 112.34375 82.464844 112.285156 82.429688 L 110.144531 81.175781 C 110.085938 81.140625 110.042969 81.078125 110.042969 81.011719 L 110.042969 78.503906 C 110.042969 78.433594 110.085938 78.371094 110.144531 78.335938 L 112.285156 77.082031 C 112.316406 77.066406 112.339844 77.058594 112.375 77.058594 Z M 112.375 77.058594 " fill-opacity="1" fill-rule="nonzero"/></g><g clip-path="url(#5bd088ba11)"><path fill="#83cd29" d="M 93.679688 71.570312 C 93.542969 71.570312 93.417969 71.601562 93.304688 71.671875 L 87.054688 75.308594 C 86.820312 75.445312 86.679688 75.707031 86.679688 75.980469 L 86.679688 83.277344 C 86.679688 83.570312 86.804688 83.792969 87.054688 83.9375 L 93.304688 87.585938 C 93.554688 87.734375 93.804688 87.734375 94.054688 87.585938 L 100.300781 83.9375 C 100.554688 83.792969 100.679688 83.570312 100.679688 83.277344 L 100.679688 75.980469 C 100.679688 75.707031 100.535156 75.445312 100.300781 75.308594 L 94.054688 71.671875 C 93.9375 71.601562 93.8125 71.570312 93.679688 71.570312 Z M 131.042969 78.082031 C 131.019531 78.082031 130.992188 78.082031 130.96875 78.09375 L 129.765625 78.804688 C 129.71875 78.832031 129.691406 78.875 129.691406 78.933594 L 129.691406 80.324219 C 129.691406 80.378906 129.722656 80.425781 129.765625 80.453125 L 130.96875 81.148438 C 131.015625 81.179688 131.058594 81.179688 131.105469 81.148438 L 132.308594 80.453125 C 132.351562 80.425781 132.382812 80.378906 132.382812 80.324219 L 132.382812 78.933594 C 132.382812 78.878906 132.351562 78.832031 132.308594 78.804688 L 131.105469 78.09375 C 131.082031 78.082031 131.066406 78.082031 131.042969 78.082031 Z M 131.042969 78.082031 " fill-opacity="1" fill-rule="nonzero"/></g></svg>