<svg xmlns="http://www.w3.org/2000/svg" xmlns:xlink="http://www.w3.org/1999/xlink" width="300" zoomAndPan="magnify" viewBox="0 0 224.87999 149.999998" height="200" preserveAspectRatio="xMidYMid meet" version="1.0"><defs><clipPath id="1f3f740cec"><path d="M 0 0.0390625 L 224.761719 0.0390625 L 224.761719 149.960938 L 0 149.960938 Z M 0 0.0390625 " clip-rule="nonzero"/></clipPath><clipPath id="3e49bcd53f"><path d="M 80.417969 47 L 144.132812 47 L 144.132812 103 L 80.417969 103 Z M 80.417969 47 " clip-rule="nonzero"/></clipPath><clipPath id="658e0a2b82"><path d="M 80.417969 45.015625 L 144.132812 45.015625 L 144.132812 104.984375 L 80.417969 104.984375 Z M 80.417969 45.015625 " clip-rule="nonzero"/></clipPath></defs><g clip-path="url(#1f3f740cec)"><path fill="#ffffff" d="M 0 0.0390625 L 224.878906 0.0390625 L 224.878906 149.960938 L 0 149.960938 Z M 0 0.0390625 " fill-opacity="1" fill-rule="nonzero"/><path fill="#ffffff" d="M 0 0.0390625 L 224.878906 0.0390625 L 224.878906 149.960938 L 0 149.960938 Z M 0 0.0390625 " fill-opacity="1" fill-rule="nonzero"/></g><path fill="#00d8ff" d="M 117.964844 74.949219 C 117.964844 75.324219 117.929688 75.695312 117.855469 76.0625 C 117.785156 76.429688 117.675781 76.789062 117.53125 77.136719 C 117.390625 77.480469 117.214844 77.8125 117.007812 78.125 C 116.800781 78.4375 116.5625 78.726562 116.300781 78.992188 C 116.035156 79.257812 115.75 79.492188 115.4375 79.703125 C 115.128906 79.910156 114.800781 80.085938 114.453125 80.230469 C 114.109375 80.375 113.753906 80.480469 113.386719 80.554688 C 113.019531 80.628906 112.648438 80.664062 112.277344 80.664062 C 111.902344 80.664062 111.53125 80.628906 111.167969 80.554688 C 110.800781 80.480469 110.445312 80.375 110.097656 80.230469 C 109.753906 80.085938 109.425781 79.910156 109.117188 79.703125 C 108.804688 79.492188 108.515625 79.257812 108.253906 78.992188 C 107.988281 78.726562 107.753906 78.4375 107.546875 78.125 C 107.339844 77.8125 107.164062 77.480469 107.019531 77.136719 C 106.878906 76.789062 106.769531 76.429688 106.695312 76.0625 C 106.625 75.695312 106.585938 75.324219 106.585938 74.949219 C 106.585938 74.570312 106.625 74.199219 106.695312 73.832031 C 106.769531 73.464844 106.878906 73.105469 107.019531 72.757812 C 107.164062 72.414062 107.339844 72.082031 107.546875 71.769531 C 107.753906 71.457031 107.988281 71.167969 108.253906 70.902344 C 108.515625 70.640625 108.804688 70.402344 109.117188 70.191406 C 109.425781 69.984375 109.753906 69.808594 110.097656 69.664062 C 110.445312 69.519531 110.800781 69.414062 111.167969 69.339844 C 111.53125 69.265625 111.902344 69.230469 112.277344 69.230469 C 112.648438 69.230469 113.019531 69.265625 113.386719 69.339844 C 113.753906 69.414062 114.109375 69.519531 114.453125 69.664062 C 114.800781 69.808594 115.128906 69.984375 115.4375 70.191406 C 115.75 70.402344 116.035156 70.640625 116.300781 70.902344 C 116.5625 71.167969 116.800781 71.457031 117.007812 71.769531 C 117.214844 72.082031 117.390625 72.414062 117.53125 72.757812 C 117.675781 73.105469 117.785156 73.464844 117.855469 73.832031 C 117.929688 74.199219 117.964844 74.570312 117.964844 74.949219 Z M 117.964844 74.949219 " fill-opacity="1" fill-rule="nonzero"/><g clip-path="url(#3e49bcd53f)"><path stroke-linecap="butt" transform="matrix(0.113414, 0, 0, 0.113977, 81.707974, 47.86294)" fill="none" stroke-linejoin="miter" d="M 269.536753 135.61789 C 336.871356 135.61789 399.452928 145.282637 446.638813 161.527636 C 503.468528 181.097033 538.427414 210.776715 538.427414 237.64608 C 538.427414 265.612154 501.401993 297.142532 440.335881 317.3631 C 394.217705 332.648479 333.461573 340.63389 269.536753 340.63389 C 203.993148 340.63389 141.893768 333.128289 95.224517 317.19174 C 36.190497 297.005443 0.611651 265.098072 0.611651 237.64608 C 0.611651 210.982348 33.986193 181.542571 90.023737 162.007446 C 137.381833 145.48827 201.513306 135.61789 269.536753 135.61789 Z M 269.536753 135.61789 " stroke="#00d8ff" stroke-width="24" stroke-opacity="1" stroke-miterlimit="4"/></g><g clip-path="url(#658e0a2b82)"><path stroke-linecap="butt" transform="matrix(0.113414, 0, 0, 0.113977, 81.707974, 47.86294)" fill="none" stroke-linejoin="miter" d="M 180.744628 186.923299 C 214.394708 128.557828 254.003298 79.205932 291.648679 46.441757 C 337.009125 6.960241 380.165266 -8.496499 403.413786 4.938184 C 427.661132 18.921221 436.478348 66.765142 423.493619 129.723081 C 413.71202 177.361369 390.256846 233.944688 358.328879 289.328482 C 325.574297 346.117434 288.066685 396.154772 250.937937 428.610498 C 203.958706 469.668533 158.529376 484.542646 134.764222 470.833787 C 111.687913 457.536193 102.870696 413.907746 113.926659 355.576547 C 123.294952 306.327468 146.750125 245.837124 180.710186 186.923299 Z M 180.744628 186.923299 " stroke="#00d8ff" stroke-width="24" stroke-opacity="1" stroke-miterlimit="4"/><path stroke-linecap="butt" transform="matrix(0.113414, 0, 0, 0.113977, 81.707974, 47.86294)" fill="none" stroke-linejoin="miter" d="M 180.813512 289.46557 C 147.094548 231.202916 124.087124 172.186274 114.512178 123.245644 C 102.974023 64.229003 111.136837 19.126854 134.385357 5.657899 C 158.59826 -8.35941 204.440897 7.919861 252.522281 50.588687 C 288.858857 82.873052 326.194258 131.436688 358.225552 186.78621 C 391.08346 243.506618 415.70967 300.981013 425.284616 349.339016 C 437.373847 410.549075 427.592247 457.33056 403.827094 471.073692 C 380.750785 484.43983 338.559026 470.319704 293.577445 431.592175 C 255.553199 398.896544 214.911342 348.345124 180.813512 289.46557 Z M 180.813512 289.46557 " stroke="#00d8ff" stroke-width="24" stroke-opacity="1" stroke-miterlimit="4"/></g></svg>